<svg width="258" height="306" viewBox="0 0 258 306" fill="none" xmlns="http://www.w3.org/2000/svg">
<path d="M120.595 145.033C120.778 144.783 121.426 144.081 122.434 144.377C122.826 144.492 123.088 144.725 123.237 144.889C123.314 144.973 123.381 145.06 123.438 145.145L123.581 145.386L124.478 147.05C143.424 181.654 169.31 194.996 193.26 198.073C217.695 201.212 240.23 193.675 251.474 186.81L251.597 186.734L251.731 186.685H251.732V186.684H251.733C251.734 186.683 251.736 186.683 251.737 186.683C251.74 186.682 251.743 186.68 251.746 186.679C251.753 186.676 251.763 186.672 251.775 186.668C251.799 186.659 251.833 186.648 251.874 186.634C251.956 186.605 252.07 186.566 252.207 186.523C252.474 186.44 252.854 186.332 253.249 186.258C253.598 186.192 254.148 186.114 254.673 186.215C254.946 186.267 255.371 186.398 255.73 186.761C256.137 187.172 256.281 187.698 256.253 188.177C252.71 248.966 214.518 275.798 192.943 286.923L191.929 287.446L191.153 286.607C183.974 278.831 177.05 275.625 170.723 275.055C164.367 274.482 158.389 276.546 153.091 279.728C147.79 282.911 143.258 287.16 139.843 290.808C138.139 292.627 136.723 294.285 135.631 295.578C135.089 296.219 134.615 296.785 134.232 297.226C133.874 297.638 133.512 298.04 133.216 298.287C131.472 299.74 129.829 300.099 128.46 299.414C127.864 299.116 127.473 298.684 127.241 298.362C127.123 298.198 127.036 298.047 126.976 297.933C126.966 297.914 126.958 297.897 126.949 297.88C125.088 295.142 123.532 292.516 122.037 290.164C120.506 287.754 118.998 285.564 117.148 283.538C113.491 279.532 108.366 276.029 98.8115 273.067C90.7321 270.563 84.8355 271.883 80.7979 273.712C78.7579 274.636 77.1664 275.702 75.959 276.538C75.3811 276.938 74.8168 277.339 74.3682 277.605C74.1427 277.739 73.8691 277.887 73.5801 277.985C73.3267 278.071 72.7967 278.213 72.2158 277.989C56.2263 271.823 43.7572 256.335 35.3359 241.943C31.106 234.715 27.8546 227.688 25.6572 222.11C24.5587 219.322 23.7183 216.882 23.1504 214.95C22.6022 213.085 22.2558 211.527 22.2559 210.59V208.543L24.208 209.159C60.9943 220.785 85.5628 211.774 100.578 196.976C115.719 182.054 121.291 161.124 119.768 148.772L119.749 148.623L119.761 148.473V148.468C119.761 148.465 119.761 148.461 119.762 148.457C119.762 148.448 119.763 148.435 119.765 148.419C119.767 148.388 119.771 148.343 119.776 148.288C119.787 148.177 119.802 148.022 119.823 147.841C119.864 147.485 119.93 146.998 120.023 146.541C120.07 146.313 120.129 146.067 120.204 145.835C120.27 145.632 120.387 145.316 120.595 145.033Z" fill="#FFCC00" stroke="black" stroke-width="3"/>
<path d="M196.31 37.5674L198.337 39.5674L195.54 40.1074C181.059 42.905 159.793 50.6933 143.129 64.9014C126.519 79.0634 114.523 99.5484 118.243 127.939C118.255 128.031 118.301 128.364 118.188 128.729C118.124 128.939 117.958 129.313 117.55 129.578C117.116 129.86 116.668 129.852 116.384 129.791C115.94 129.696 115.647 129.425 115.59 129.375C115.472 129.27 115.366 129.155 115.281 129.058C114.959 128.686 114.494 128.043 113.947 127.28C112.812 125.697 111.1 123.279 108.795 120.4C104.182 114.64 97.226 107.079 87.9561 100.882C78.6953 94.6912 67.1463 89.8768 53.3115 89.5566C39.4816 89.2367 23.2347 93.4043 4.56641 105.396L1.87793 107.124L2.2666 103.952L8.53516 52.834C8.49091 52.7884 8.44836 52.7435 8.4082 52.6992C8.22654 52.4988 8.02103 52.2412 7.88379 51.9365C7.7545 51.6494 7.55467 51.0042 7.94727 50.3428C8.30939 49.7328 8.90527 49.5836 9.125 49.543C9.58872 49.4573 10.0615 49.5505 10.2363 49.5859C10.3615 49.6113 10.471 49.6385 10.5488 49.6592C10.5881 49.6696 10.621 49.6785 10.6455 49.6855C10.6578 49.6891 10.6687 49.6929 10.6768 49.6953C10.6807 49.6965 10.6846 49.6974 10.6875 49.6982C10.6888 49.6986 10.6903 49.6989 10.6914 49.6992L10.6924 49.7002H10.6934C10.6926 49.7037 10.6722 49.7722 10.2559 51.1348L10.6943 49.7002L11.8975 50.0684L11.7451 51.3174L11.708 51.6182C14.4073 53.7206 21.7618 58.4837 39.9961 68.8799C58.6472 79.5134 81.3431 75.9452 100.754 68.0635C110.425 64.1365 119.191 59.1726 126.092 54.4814C133.028 49.766 137.969 45.4005 140.074 42.71C144.461 37.105 149.316 28.0725 152.745 19.8096C154.457 15.6854 155.791 11.8078 156.531 8.69434C156.902 7.13484 157.114 5.80949 157.162 4.76465C157.213 3.66833 157.07 3.09128 156.942 2.85938L159.31 1.06738L196.31 37.5674Z" fill="#FFCC00" stroke="black" stroke-width="3"/>
<path d="M57.8213 108.24C82.7868 108.24 102.821 126.929 102.821 149.74C102.821 172.552 82.7868 191.24 57.8213 191.24C32.8558 191.24 12.8213 172.552 12.8213 149.74C12.8213 126.929 32.8558 108.24 57.8213 108.24Z" fill="#FFCC00" stroke="black" stroke-width="3"/>
<path d="M195.756 63.6348C227.023 63.6348 252.256 87.873 252.256 117.635C252.256 147.397 227.023 171.635 195.756 171.635C164.489 171.635 139.256 147.397 139.256 117.635C139.256 87.873 164.489 63.6348 195.756 63.6348Z" fill="#FFCC00" stroke="black" stroke-width="3"/>
<path d="M135.251 218.747L118.356 193.824C123.048 187.593 134.794 186.099 139.886 192.847L135.251 218.747Z" fill="black" stroke="black"/>
<path d="M177.256 98.6348C193.333 98.6348 206.256 110.109 206.256 124.135C206.256 138.161 193.333 149.635 177.256 149.635C161.178 149.635 148.256 138.161 148.256 124.135C148.256 110.109 161.178 98.6348 177.256 98.6348Z" fill="black" stroke="black"/>
<circle cx="67.2559" cy="147.635" r="25" fill="black" stroke="black"/>
<path d="M181.756 101.635C183.867 101.635 185.759 102.277 187.112 103.292C188.465 104.307 189.256 105.671 189.256 107.135C189.256 108.599 188.465 109.963 187.112 110.978C185.759 111.992 183.867 112.635 181.756 112.635C179.645 112.635 177.753 111.992 176.399 110.978C175.046 109.963 174.256 108.599 174.256 107.135C174.256 105.671 175.046 104.307 176.399 103.292C177.753 102.277 179.645 101.635 181.756 101.635Z" fill="white" stroke="black"/>
<path d="M67.7559 128.635C69.8671 128.635 71.7592 129.277 73.1123 130.292C74.4653 131.307 75.2559 132.671 75.2559 134.135C75.2559 135.599 74.4653 136.963 73.1123 137.978C71.7592 138.992 69.8671 139.635 67.7559 139.635C65.6446 139.635 63.7525 138.992 62.3994 137.978C61.0464 136.963 60.2559 135.599 60.2559 134.135C60.2559 132.671 61.0464 131.307 62.3994 130.292C63.7525 129.277 65.6446 128.635 67.7559 128.635Z" fill="white" stroke="black"/>
<path d="M120.756 300.246C102.756 274.134 82.5892 279.467 74.7559 285.133C79.0173 296.554 85.9723 302.637 93.4156 304.665H109.256C113.713 303.646 117.735 301.96 120.756 300.246Z" fill="#FFCC00" stroke="black" stroke-width="2"/>
<path d="M119.756 300.246C121.137 300.246 115.756 302.135 114.256 302.635C113.756 303.635 110.136 305.246 108.756 305.246L92.7557 305.246C91.375 305.246 89.2558 303.635 88.2558 302.135C86.2558 300.635 83.8751 300.246 85.2559 300.246L119.756 300.246Z" fill="black"/>
<path d="M186.756 290.693C168.256 272.635 147.256 291.693 140.256 302.193C142.382 303.163 144.434 303.965 146.413 304.616L172.008 304.526C179.791 301.238 184.66 295.22 186.756 290.693Z" fill="#FFCC00" stroke="black" stroke-width="2"/>
<path d="M178.756 300.135C180.137 300.135 176.256 301.635 174.256 302.693C174.256 304.074 173.137 305.193 171.756 305.193H146.756C145.375 305.193 141.256 303.015 141.256 301.635C141.256 300.254 141.875 299.635 143.256 299.635L178.756 300.135Z" fill="black"/>
</svg>
