<svg width="344" height="409" viewBox="0 0 344 409" fill="none" xmlns="http://www.w3.org/2000/svg">
<path d="M160.691 193.869C160.897 193.59 161.568 192.875 162.601 193.178C163.006 193.297 163.281 193.538 163.444 193.717C163.612 193.901 163.737 194.103 163.831 194.279C189.391 242.442 224.804 260.92 257.562 265.129C290.427 269.351 320.732 259.221 335.882 249.97L336.005 249.895L336.14 249.845L336.663 251.25C336.139 249.845 336.139 249.844 336.14 249.844H336.142C336.143 249.843 336.144 249.842 336.146 249.842C336.148 249.841 336.152 249.839 336.156 249.838C336.165 249.835 336.177 249.83 336.192 249.824C336.223 249.813 336.266 249.799 336.318 249.78C336.424 249.744 336.574 249.693 336.751 249.638C337.099 249.529 337.586 249.392 338.088 249.297C338.544 249.211 339.201 249.122 339.805 249.238C340.117 249.298 340.575 249.443 340.956 249.827C341.385 250.26 341.54 250.818 341.51 251.337C336.778 332.522 285.792 368.339 256.971 383.2L255.956 383.724L255.181 382.885C245.496 372.395 236.11 368.025 227.481 367.247C218.825 366.467 210.709 369.28 203.553 373.577C196.395 377.876 190.286 383.607 185.695 388.51C183.404 390.957 181.5 393.186 180.035 394.92C179.307 395.781 178.675 396.536 178.166 397.122C177.681 397.68 177.223 398.186 176.863 398.486C174.61 400.364 172.627 400.722 171.046 399.932C170.344 399.581 169.879 399.07 169.6 398.682C169.457 398.484 169.352 398.304 169.28 398.167C169.264 398.135 169.25 398.105 169.236 398.077C166.739 394.406 164.662 390.9 162.643 387.723C160.586 384.486 158.548 381.522 156.04 378.775C151.066 373.328 144.116 368.594 131.25 364.605C120.293 361.209 112.265 362.996 106.756 365.491C103.98 366.749 101.817 368.198 100.193 369.322C99.4071 369.867 98.673 370.388 98.0918 370.733C97.8001 370.907 97.4697 371.084 97.1328 371.198C96.8316 371.3 96.2636 371.445 95.6533 371.21C74.3987 363.013 57.768 342.392 46.502 323.139C40.8495 313.479 36.5044 304.09 33.5693 296.639C32.1021 292.914 30.9822 289.661 30.2266 287.091C29.4907 284.587 29.0489 282.565 29.0488 281.393V279.345L31.001 279.962C80.4397 295.587 113.556 283.49 133.822 263.517C154.214 243.42 161.739 215.226 159.678 198.516L159.659 198.365L159.671 198.215V198.213C159.671 198.212 159.672 198.211 159.672 198.209C159.672 198.206 159.672 198.201 159.673 198.195C159.674 198.184 159.675 198.168 159.677 198.147C159.68 198.107 159.686 198.048 159.692 197.976C159.706 197.83 159.726 197.626 159.754 197.388C159.808 196.917 159.893 196.282 160.015 195.69C160.075 195.395 160.149 195.086 160.242 194.8C160.325 194.543 160.462 194.182 160.691 193.869Z" fill="white" stroke="white" stroke-width="3"/>
<path d="M261.356 49.9648L263.384 51.9648L260.587 52.5059C241.124 56.2659 212.547 66.7282 190.14 85.833C168.136 104.594 152.122 131.636 156.406 168.953L156.626 170.738L156.64 170.866C156.653 171.031 156.658 171.298 156.571 171.579C156.505 171.794 156.337 172.172 155.925 172.439C155.487 172.723 155.035 172.715 154.746 172.653C154.292 172.556 153.986 172.277 153.914 172.213C153.78 172.094 153.655 171.959 153.548 171.836C153.135 171.361 152.529 170.523 151.79 169.491C150.27 167.371 147.969 164.122 144.871 160.254C138.672 152.514 129.316 142.341 116.839 134C104.371 125.665 88.8071 119.173 70.1562 118.741C51.5101 118.31 29.6461 123.932 4.56641 140.043L1.87793 141.771L2.2666 138.599L10.6953 69.8701C10.5748 69.7526 10.4645 69.6407 10.3662 69.5322C10.137 69.2794 9.90281 68.9805 9.75098 68.6436C9.60713 68.3241 9.40627 67.6553 9.80859 66.9775C10.1805 66.351 10.7971 66.1927 11.042 66.1475C11.5558 66.0526 12.1007 66.1555 12.3359 66.2031C12.4913 66.2346 12.6283 66.2681 12.7256 66.2939C12.7747 66.307 12.8158 66.3185 12.8457 66.3271C12.8603 66.3314 12.8724 66.3351 12.8818 66.3379C12.8866 66.3393 12.8912 66.3408 12.8945 66.3418C12.896 66.3422 12.8973 66.3424 12.8984 66.3428L12.9004 66.3438H12.9014C12.9017 66.3439 12.9 66.3473 12.5547 67.4775H12.5557L12.9023 66.3438L14.1055 66.7119L13.9521 67.9609L13.8672 68.6514C17.341 71.4125 27.133 77.7853 52.0527 91.9932C77.2431 106.355 107.837 101.51 133.893 90.9297C146.886 85.6536 158.662 78.9849 167.933 72.6826C177.239 66.3561 183.909 60.4737 186.779 56.8066C192.694 49.2486 199.219 37.1023 203.823 26.0088C206.122 20.4692 207.919 15.2469 208.92 11.04C209.421 8.93389 209.712 7.12497 209.778 5.68164C209.847 4.18686 209.663 3.29655 209.422 2.85938L211.788 1.06738L261.356 49.9648ZM153.65 171.124L153.651 171.128C153.651 171.122 153.65 171.116 153.649 171.11L153.65 171.124Z" fill="white" stroke="white" stroke-width="3"/>
<path d="M261.977 160.135C261.976 149.332 252.164 136.783 235.276 136.783C218.389 136.783 208.575 149.332 208.575 160.135C208.575 170.937 218.389 183.486 235.276 183.486L260.973 231.221L259.968 231.215C217.518 230.7 183.271 197.612 183.271 156.869C183.272 115.806 218.06 82.5176 260.973 82.5176L261.977 82.5234C304.427 83.0379 338.673 116.127 338.673 156.869C338.673 197.932 303.886 231.221 260.973 231.221L235.276 183.486C252.164 183.486 261.977 170.937 261.977 160.135Z" fill="white"/>
<path d="M57.5076 205.135C57.5077 213.251 64.8117 222.679 77.3814 222.679C89.9512 222.679 97.2558 213.251 97.2559 205.135C97.2559 197.019 89.9513 187.591 77.3814 187.591C75.0577 173.299 70.4577 142.135 70.4577 142.135L71.328 142.14C108.095 142.59 137.756 171.517 137.756 207.135C137.756 243.034 105.423 266.635 68.2559 266.635L67.3864 266.63C30.6196 266.18 3.75593 235.001 3.75586 199.383C3.75586 163.484 33.2901 142.135 70.4577 142.135C70.4577 142.135 75.0577 173.299 77.3814 187.591C64.8116 187.591 57.5076 197.019 57.5076 205.135Z" fill="white"/>
<path d="M160.498 401.507C136.384 366.526 109.367 373.669 98.873 381.261C104.582 396.561 113.899 404.71 123.871 407.426H145.092C151.063 406.062 156.451 403.802 160.498 401.507Z" fill="white" stroke="white" stroke-width="2"/>
<path d="M159.159 401.508C161.009 401.508 153.801 404.038 151.791 404.708C151.121 406.048 146.273 408.206 144.423 408.206L122.988 408.206C121.138 408.206 118.299 406.048 116.96 404.038C114.28 402.029 111.091 401.508 112.941 401.508L159.159 401.508Z" fill="white"/>
<path d="M248.914 388.709C224.13 364.517 195.997 390.049 186.619 404.116C189.467 405.414 192.217 406.489 194.868 407.362L229.156 407.241C239.583 402.836 246.106 394.773 248.914 388.709Z" fill="white" stroke="white" stroke-width="2"/>
<path d="M238.197 401.353C240.046 401.353 234.847 403.363 232.168 404.781C232.168 406.631 230.669 408.13 228.819 408.13H195.327C193.478 408.13 187.959 405.213 187.959 403.363C187.959 401.513 188.789 400.684 190.639 400.684L238.197 401.353Z" fill="white"/>
</svg>
