<svg width="426" height="342" viewBox="0 0 426 342" fill="none" xmlns="http://www.w3.org/2000/svg">
<g clip-path="url(#clip0_2774_791)">
<circle cx="213" cy="227" r="205" fill="black" stroke="white" stroke-width="13"/>
<path d="M207.356 167.927C207.58 167.694 208.325 167.08 209.293 167.511C209.671 167.68 209.905 167.949 210.035 168.137C210.136 168.283 210.212 168.432 210.27 168.569L210.322 168.702L211.074 170.693C227.049 212.166 253.964 230.954 280.266 237.98C307.089 245.145 333.387 240.103 346.984 234.113L347.1 234.063L347.223 234.032L347.589 235.486C347.223 234.032 347.223 234.031 347.223 234.031L347.225 234.032C347.226 234.031 347.228 234.03 347.23 234.03C347.232 234.029 347.236 234.029 347.24 234.028C347.248 234.026 347.259 234.023 347.272 234.02C347.299 234.014 347.336 234.004 347.381 233.994C347.472 233.974 347.598 233.947 347.748 233.919C348.043 233.864 348.46 233.799 348.895 233.774C349.292 233.75 349.871 233.748 350.407 233.923C350.687 234.015 351.057 234.187 351.365 234.525C351.661 234.85 351.831 235.252 351.868 235.677L351.876 235.86L351.87 237.207C351.628 265.71 343.8 307.5 332.908 343.452C327.373 361.722 321.026 378.551 314.446 391.407C311.157 397.834 307.788 403.309 304.405 407.485C301.045 411.635 297.559 414.642 293.998 415.913L292.923 416.296L292.267 415.362C278.668 395.997 258.784 393.55 241.551 396.338C224.279 399.133 209.983 407.164 208.226 408.27C206.271 409.499 202.321 411.414 198.95 412.987C197.246 413.781 195.659 414.503 194.498 415.025C193.918 415.286 193.444 415.497 193.115 415.644C192.95 415.717 192.821 415.775 192.733 415.813C192.69 415.833 192.656 415.847 192.634 415.857C192.622 415.862 192.614 415.866 192.608 415.869C192.605 415.87 192.603 415.871 192.601 415.872L192.599 415.872L191.293 416.448L190.653 415.173C188.926 411.73 187.956 408.923 187.154 406.55C186.344 404.15 185.741 402.32 184.743 400.605C182.808 397.281 179.231 394.165 168.864 389.361C159.955 385.234 155.696 385.638 153.603 386.537C152.548 386.99 151.898 387.623 151.371 388.187C151.156 388.417 150.804 388.819 150.479 389.072C150.297 389.214 149.998 389.415 149.599 389.505C149.141 389.608 148.678 389.537 148.273 389.315C143.888 386.912 139.714 382.59 135.767 377.02C131.805 371.43 127.998 364.476 124.384 356.674C117.155 341.069 110.632 321.932 105.176 303.21C99.7171 284.48 95.3121 266.123 92.3227 252.058C90.8281 245.026 89.6858 239.059 88.9421 234.648C88.5704 232.444 88.2962 230.617 88.1277 229.235C88.0436 228.545 87.9837 227.952 87.9523 227.472C87.9231 227.025 87.9103 226.572 87.9578 226.218L88.2298 224.189L90.0827 225.059C129.417 243.547 158.234 237.173 177.25 222.87C196.407 208.462 205.779 185.905 205.927 171.845L205.928 171.694L205.96 171.547L207.426 171.86L205.96 171.546L205.961 171.541C205.961 171.538 205.962 171.534 205.963 171.529C205.965 171.52 205.969 171.506 205.973 171.489C205.98 171.455 205.991 171.406 206.005 171.346C206.033 171.225 206.072 171.056 206.122 170.858C206.221 170.469 206.365 169.943 206.535 169.454C206.62 169.211 206.72 168.952 206.834 168.714C206.936 168.503 207.102 168.189 207.356 167.927Z" fill="#FFCC00" stroke="black" stroke-width="3"/>
<path d="M307.559 59.4057L309.303 61.6573L306.459 61.8219C289.87 62.7779 264.961 68.2888 244.223 81.6618C223.544 94.9964 207.062 116.098 206.966 148.388C206.965 148.489 206.966 148.831 206.804 149.182C206.711 149.383 206.496 149.733 206.055 149.942C205.586 150.164 205.141 150.097 204.866 149.998C204.434 149.843 204.176 149.532 204.122 149.469C204.014 149.343 203.918 149.207 203.84 149.089C203.542 148.636 203.124 147.859 202.627 146.922C201.598 144.987 200.049 142.031 197.906 138.473C193.617 131.351 186.98 121.863 177.551 113.55C168.13 105.245 155.941 98.1308 140.52 95.699C125.104 93.2681 106.328 95.4958 83.6921 106.09L80.7979 107.445L81.6046 104.353L96.2587 48.2043C96.1974 48.1235 96.1397 48.0456 96.0873 47.9694C95.919 47.7252 95.7414 47.4257 95.6422 47.093C95.5484 46.7787 95.4361 46.1041 95.9174 45.4952C96.3616 44.9334 96.98 44.8627 97.2128 44.8511C97.7023 44.8269 98.1846 44.9884 98.3748 45.0542C98.5061 45.0997 98.6207 45.1452 98.7019 45.1788C98.7431 45.1959 98.7773 45.2108 98.8026 45.2219C98.8153 45.2275 98.826 45.2323 98.8342 45.236C98.8381 45.2377 98.8416 45.239 98.8445 45.2403C98.8459 45.241 98.8479 45.2424 98.849 45.2429L98.851 45.2432L98.8518 45.2443L99.9955 45.7681L99.6785 46.9858L99.5653 47.4189C102.213 50.1401 109.68 56.5454 128.621 70.9877C147.896 85.6849 173.808 85.0844 196.65 79.1926C208.034 76.2559 218.564 72.0261 226.969 67.8217C235.414 63.598 241.596 59.4596 244.367 56.754C250.112 51.144 256.886 41.7826 261.949 33.0737C264.477 28.7259 266.549 24.5912 267.845 21.2177C268.494 19.5286 268.932 18.0716 269.145 16.8981C269.367 15.6735 269.302 14.9661 269.175 14.6388L271.759 13.1773L307.559 59.4057Z" fill="#FFCC00" stroke="black" stroke-width="3"/>
<path d="M138.35 112.747C168.403 116.777 190.143 142.68 186.344 171.016C182.545 199.352 154.75 218.614 124.697 214.585C94.6434 210.556 72.9026 184.653 76.7013 156.317C80.5002 127.98 108.296 108.718 138.35 112.747Z" fill="#FFCC00" stroke="white" stroke-width="6"/>
<path d="M303.817 83.6282C341.051 88.62 367.585 121.612 362.767 157.553C357.949 193.495 323.661 218.334 286.427 213.342C249.193 208.35 222.66 175.357 227.478 139.416C232.297 103.475 266.583 78.6367 303.817 83.6282Z" fill="#FFCC00" stroke="white" stroke-width="6"/>
<path d="M212.543 252.185L197.431 221.87C203.595 215.624 216.914 215.713 221.583 223.999L212.543 252.185Z" fill="black" stroke="black"/>
<path d="M277.343 124.474C295.296 126.881 308.022 141.632 305.92 157.312C303.818 172.992 287.656 183.87 269.703 181.463C251.75 179.056 239.024 164.306 241.126 148.625C243.228 132.945 259.39 122.067 277.343 124.474Z" fill="black" stroke="black"/>
<circle cx="142.357" cy="162.729" r="28.1872" transform="rotate(7.6358 142.357 162.729)" fill="black" stroke="black"/>
<path d="M281.911 128.49C284.278 128.808 286.304 129.812 287.672 131.156C289.039 132.5 289.728 134.158 289.506 135.814C289.283 137.471 288.183 138.888 286.51 139.825C284.836 140.761 282.617 141.197 280.25 140.879C277.884 140.562 275.857 139.558 274.489 138.213C273.122 136.869 272.434 135.212 272.656 133.555C272.878 131.899 273.978 130.481 275.651 129.545C277.325 128.608 279.545 128.173 281.911 128.49Z" fill="white" stroke="black"/>
<path d="M145.764 141.555C148.13 141.872 150.157 142.877 151.524 144.221C152.892 145.565 153.58 147.222 153.358 148.879C153.136 150.535 152.035 151.953 150.362 152.889C148.689 153.826 146.469 154.261 144.103 153.944C141.737 153.627 139.709 152.622 138.342 151.278C136.974 149.934 136.287 148.276 136.509 146.62C136.731 144.964 137.831 143.546 139.504 142.609C141.177 141.673 143.398 141.237 145.764 141.555Z" fill="white" stroke="black"/>
</g>
<defs>
<clipPath id="clip0_2774_791">
<rect width="426" height="342" fill="white"/>
</clipPath>
</defs>
</svg>
