<svg width="750" height="750" viewBox="0 0 750 750" fill="none" xmlns="http://www.w3.org/2000/svg">
<rect width="750" height="750" fill="#EDBD00"/>
<mask id="path-2-inside-1_448_9730" fill="white">
<path d="M484.423 63.7904C485.685 64.2329 486.947 64.6755 488.248 65.1316C512.234 74.3127 529.928 92.2348 540.744 115.265C543.49 122.032 545.431 128.928 547.173 136.012C547.798 138.013 547.798 138.013 548.435 140.054C550.388 148.001 550.225 156.286 550.281 164.427C550.288 165.329 550.295 166.232 550.302 167.162C550.337 187.347 546.137 205.652 540.069 224.808C539.748 225.834 539.426 226.86 539.095 227.917C537.346 233.339 535.273 238.538 532.965 243.752C532.611 244.577 532.257 245.402 531.892 246.251C518.777 276.579 499.786 303.858 478.503 328.997C477.474 330.231 476.446 331.466 475.418 332.701C468.015 341.567 460.335 350.15 452.456 358.596C451.753 359.352 451.05 360.109 450.325 360.888C428.037 384.862 428.037 384.862 416.896 394.415C414.441 396.596 412.137 398.879 409.834 401.218C406.079 405.024 402.19 408.579 398.138 412.063C395.36 414.472 392.646 416.944 389.928 419.421C384.845 424.01 379.606 428.357 374.283 432.662C370.364 435.881 366.531 439.189 362.697 442.508C356.595 447.778 350.369 452.843 344.001 457.788C338.598 461.988 333.288 466.292 327.993 470.627C321.008 476.329 313.919 481.84 306.662 487.192C303.894 489.253 301.149 491.343 298.403 493.432C297.33 494.246 296.256 495.06 295.151 495.898C292.993 497.534 290.839 499.174 288.687 500.818C287.7 501.564 286.712 502.311 285.694 503.08C284.805 503.756 283.916 504.432 283 505.129C280.782 506.59 280.782 506.59 278.415 506.59C280.854 546.213 290.173 589.885 320.149 618.104C341.298 635.966 366.958 643.717 394.442 641.561C419.037 638.854 441.484 629.506 463.112 617.882C464.452 617.183 465.792 616.484 467.172 615.764C489.127 603.849 509.837 587.435 527.045 569.34C532.965 563.42 532.965 563.42 535.282 561.228C542.891 553.898 549.296 545.914 555.46 537.373C555.932 536.724 556.403 536.075 556.888 535.406C567.882 520.077 578.312 502.911 585.059 485.279C567.776 494.662 552.606 506.209 537.752 519.1C536.612 520.076 535.472 521.051 534.297 522.056C533.275 522.948 532.252 523.841 531.199 524.761C527.844 526.971 526.243 527.457 522.31 526.717C519.942 523.166 519.942 523.166 520.183 519.799C521.152 515.957 522.461 513.016 524.368 509.55C525.039 508.318 525.71 507.085 526.401 505.815C527.127 504.508 527.852 503.201 528.599 501.854C529.734 499.781 530.868 497.707 532.002 495.633C533.155 493.528 534.313 491.427 535.472 489.326C537.509 485.628 539.531 481.923 541.544 478.212C548.306 465.755 555.152 453.347 562.052 440.966C565.459 434.848 568.858 428.725 572.258 422.603C573.792 419.842 575.326 417.081 576.859 414.32C577.637 412.921 578.415 411.521 579.192 410.121C585.97 397.92 585.97 397.92 588.18 393.943C589.656 391.286 591.132 388.629 592.608 385.972C596.292 379.34 599.977 372.709 603.665 366.079C605.134 363.436 606.603 360.794 608.072 358.152C608.799 356.844 609.526 355.537 610.275 354.19C614.149 347.218 618.011 340.24 621.854 333.251C629.549 319.265 637.266 305.298 645.231 291.463C649.694 283.705 654.046 275.89 658.323 268.029C661.761 261.767 661.761 261.767 664.384 259.143C667.344 258.847 667.344 258.847 670.304 259.143C673.159 261.998 672.968 262.632 672.97 266.529C672.976 267.588 672.982 268.647 672.989 269.739C672.984 270.909 672.978 272.08 672.973 273.286C672.977 274.525 672.98 275.763 672.984 277.038C672.994 281.214 672.986 285.39 672.979 289.565C672.982 292.548 672.986 295.531 672.991 298.513C673.001 305.79 672.999 313.066 672.992 320.343C672.987 326.255 672.986 332.166 672.989 338.078C672.989 338.918 672.99 339.759 672.99 340.624C672.991 342.331 672.992 344.037 672.992 345.744C672.999 361.761 672.991 377.778 672.979 393.796C672.968 407.551 672.97 421.305 672.981 435.06C672.993 451.019 672.998 466.977 672.991 482.936C672.99 484.636 672.99 486.337 672.989 488.037C672.989 488.874 672.988 489.71 672.988 490.573C672.986 496.48 672.989 502.387 672.995 508.294C673.002 516.24 672.997 524.185 672.983 532.13C672.98 535.054 672.981 537.978 672.986 540.902C672.993 544.877 672.985 548.853 672.973 552.829C672.978 553.999 672.983 555.17 672.989 556.377C672.983 557.436 672.976 558.495 672.97 559.586C672.97 560.504 672.969 561.423 672.969 562.369C672.672 564.604 672.672 564.604 670.304 566.972C667.418 567.49 667.418 567.49 664.384 566.972C661.537 562.955 659.953 558.905 658.488 554.23C658.067 552.915 657.646 551.6 657.212 550.245C656.771 548.854 656.329 547.464 655.875 546.031C650.594 529.784 644.627 514.24 635.969 499.486C635.409 500.62 634.849 501.754 634.272 502.923C608.468 554.98 576.301 600.372 529.413 635.641C528.371 636.44 528.371 636.439 527.307 637.254C495.986 661.22 461.102 679.067 422.857 688.919C420.774 689.487 420.774 689.487 418.649 690.066C381.03 698.804 339.744 691.798 306.797 672.092C269.739 648.291 245.158 609.847 235.768 567.124C235.011 563.575 234.283 560.02 233.558 556.464C232.621 551.946 231.477 547.63 229.872 543.293C228.889 543.972 227.907 544.651 226.894 545.351C213.143 554.836 199.326 564.223 185.492 573.586C179.745 577.476 174.005 581.375 168.267 585.277C163.738 588.355 159.205 591.427 154.672 594.498C152.441 596.01 150.212 597.525 147.985 599.042C110.969 624.238 110.969 624.238 101.27 623.312C92.9577 621.264 86.2694 617.836 81.7529 610.399C81.4034 609.743 81.0539 609.087 80.6938 608.41C80.181 607.482 79.6682 606.555 79.1399 605.599C76.9868 597.378 77.8529 590.353 82.0026 582.9C86.066 577.638 91.532 574.406 97.1015 570.938C102.206 567.72 107.199 564.33 112.217 560.978C113.298 560.26 114.38 559.543 115.495 558.803C122.056 554.442 128.453 549.943 134.777 545.244C137.519 543.296 140.315 541.581 143.222 539.889C148.028 537.082 152.557 533.979 157.059 530.713C163.326 526.168 169.69 521.808 176.15 517.542C184.045 512.32 191.854 506.989 199.607 501.558C200.545 500.902 201.482 500.247 202.448 499.571C204.311 498.262 206.156 496.928 207.984 495.571C210.929 493.567 210.929 493.567 214.473 491.881C218.643 489.646 221.081 487.886 223.953 484.095C226.052 476.865 225.72 469.129 225.675 461.666C225.64 455.244 225.822 448.827 225.964 442.407C225.998 440.47 225.998 440.47 226.032 438.494C226.251 426.886 227.105 415.417 228.392 403.882C228.493 402.974 228.594 402.066 228.698 401.131C233.901 355.167 242.822 309.103 257.103 265.063C257.347 264.308 257.591 263.554 257.842 262.777C265.076 240.422 272.87 218.539 282.838 197.229C284.269 194.165 285.667 191.087 287.058 188.004C298.063 163.87 311.905 141.579 328.141 120.62C328.966 119.549 329.792 118.477 330.643 117.374C365.944 72.8439 427.442 42.9086 484.423 63.7904Z"/>
</mask>
<path d="M484.423 63.7904C485.685 64.2329 486.947 64.6755 488.248 65.1316C512.234 74.3127 529.928 92.2348 540.744 115.265C543.49 122.032 545.431 128.928 547.173 136.012C547.798 138.013 547.798 138.013 548.435 140.054C550.388 148.001 550.225 156.286 550.281 164.427C550.288 165.329 550.295 166.232 550.302 167.162C550.337 187.347 546.137 205.652 540.069 224.808C539.748 225.834 539.426 226.86 539.095 227.917C537.346 233.339 535.273 238.538 532.965 243.752C532.611 244.577 532.257 245.402 531.892 246.251C518.777 276.579 499.786 303.858 478.503 328.997C477.474 330.231 476.446 331.466 475.418 332.701C468.015 341.567 460.335 350.15 452.456 358.596C451.753 359.352 451.05 360.109 450.325 360.888C428.037 384.862 428.037 384.862 416.896 394.415C414.441 396.596 412.137 398.879 409.834 401.218C406.079 405.024 402.19 408.579 398.138 412.063C395.36 414.472 392.646 416.944 389.928 419.421C384.845 424.01 379.606 428.357 374.283 432.662C370.364 435.881 366.531 439.189 362.697 442.508C356.595 447.778 350.369 452.843 344.001 457.788C338.598 461.988 333.288 466.292 327.993 470.627C321.008 476.329 313.919 481.84 306.662 487.192C303.894 489.253 301.149 491.343 298.403 493.432C297.33 494.246 296.256 495.06 295.151 495.898C292.993 497.534 290.839 499.174 288.687 500.818C287.7 501.564 286.712 502.311 285.694 503.08C284.805 503.756 283.916 504.432 283 505.129C280.782 506.59 280.782 506.59 278.415 506.59C280.854 546.213 290.173 589.885 320.149 618.104C341.298 635.966 366.958 643.717 394.442 641.561C419.037 638.854 441.484 629.506 463.112 617.882C464.452 617.183 465.792 616.484 467.172 615.764C489.127 603.849 509.837 587.435 527.045 569.34C532.965 563.42 532.965 563.42 535.282 561.228C542.891 553.898 549.296 545.914 555.46 537.373C555.932 536.724 556.403 536.075 556.888 535.406C567.882 520.077 578.312 502.911 585.059 485.279C567.776 494.662 552.606 506.209 537.752 519.1C536.612 520.076 535.472 521.051 534.297 522.056C533.275 522.948 532.252 523.841 531.199 524.761C527.844 526.971 526.243 527.457 522.31 526.717C519.942 523.166 519.942 523.166 520.183 519.799C521.152 515.957 522.461 513.016 524.368 509.55C525.039 508.318 525.71 507.085 526.401 505.815C527.127 504.508 527.852 503.201 528.599 501.854C529.734 499.781 530.868 497.707 532.002 495.633C533.155 493.528 534.313 491.427 535.472 489.326C537.509 485.628 539.531 481.923 541.544 478.212C548.306 465.755 555.152 453.347 562.052 440.966C565.459 434.848 568.858 428.725 572.258 422.603C573.792 419.842 575.326 417.081 576.859 414.32C577.637 412.921 578.415 411.521 579.192 410.121C585.97 397.92 585.97 397.92 588.18 393.943C589.656 391.286 591.132 388.629 592.608 385.972C596.292 379.34 599.977 372.709 603.665 366.079C605.134 363.436 606.603 360.794 608.072 358.152C608.799 356.844 609.526 355.537 610.275 354.19C614.149 347.218 618.011 340.24 621.854 333.251C629.549 319.265 637.266 305.298 645.231 291.463C649.694 283.705 654.046 275.89 658.323 268.029C661.761 261.767 661.761 261.767 664.384 259.143C667.344 258.847 667.344 258.847 670.304 259.143C673.159 261.998 672.968 262.632 672.97 266.529C672.976 267.588 672.982 268.647 672.989 269.739C672.984 270.909 672.978 272.08 672.973 273.286C672.977 274.525 672.98 275.763 672.984 277.038C672.994 281.214 672.986 285.39 672.979 289.565C672.982 292.548 672.986 295.531 672.991 298.513C673.001 305.79 672.999 313.066 672.992 320.343C672.987 326.255 672.986 332.166 672.989 338.078C672.989 338.918 672.99 339.759 672.99 340.624C672.991 342.331 672.992 344.037 672.992 345.744C672.999 361.761 672.991 377.778 672.979 393.796C672.968 407.551 672.97 421.305 672.981 435.06C672.993 451.019 672.998 466.977 672.991 482.936C672.99 484.636 672.99 486.337 672.989 488.037C672.989 488.874 672.988 489.71 672.988 490.573C672.986 496.48 672.989 502.387 672.995 508.294C673.002 516.24 672.997 524.185 672.983 532.13C672.98 535.054 672.981 537.978 672.986 540.902C672.993 544.877 672.985 548.853 672.973 552.829C672.978 553.999 672.983 555.17 672.989 556.377C672.983 557.436 672.976 558.495 672.97 559.586C672.97 560.504 672.969 561.423 672.969 562.369C672.672 564.604 672.672 564.604 670.304 566.972C667.418 567.49 667.418 567.49 664.384 566.972C661.537 562.955 659.953 558.905 658.488 554.23C658.067 552.915 657.646 551.6 657.212 550.245C656.771 548.854 656.329 547.464 655.875 546.031C650.594 529.784 644.627 514.24 635.969 499.486C635.409 500.62 634.849 501.754 634.272 502.923C608.468 554.98 576.301 600.372 529.413 635.641C528.371 636.44 528.371 636.439 527.307 637.254C495.986 661.22 461.102 679.067 422.857 688.919C420.774 689.487 420.774 689.487 418.649 690.066C381.03 698.804 339.744 691.798 306.797 672.092C269.739 648.291 245.158 609.847 235.768 567.124C235.011 563.575 234.283 560.02 233.558 556.464C232.621 551.946 231.477 547.63 229.872 543.293C228.889 543.972 227.907 544.651 226.894 545.351C213.143 554.836 199.326 564.223 185.492 573.586C179.745 577.476 174.005 581.375 168.267 585.277C163.738 588.355 159.205 591.427 154.672 594.498C152.441 596.01 150.212 597.525 147.985 599.042C110.969 624.238 110.969 624.238 101.27 623.312C92.9577 621.264 86.2694 617.836 81.7529 610.399C81.4034 609.743 81.0539 609.087 80.6938 608.41C80.181 607.482 79.6682 606.555 79.1399 605.599C76.9868 597.378 77.8529 590.353 82.0026 582.9C86.066 577.638 91.532 574.406 97.1015 570.938C102.206 567.72 107.199 564.33 112.217 560.978C113.298 560.26 114.38 559.543 115.495 558.803C122.056 554.442 128.453 549.943 134.777 545.244C137.519 543.296 140.315 541.581 143.222 539.889C148.028 537.082 152.557 533.979 157.059 530.713C163.326 526.168 169.69 521.808 176.15 517.542C184.045 512.32 191.854 506.989 199.607 501.558C200.545 500.902 201.482 500.247 202.448 499.571C204.311 498.262 206.156 496.928 207.984 495.571C210.929 493.567 210.929 493.567 214.473 491.881C218.643 489.646 221.081 487.886 223.953 484.095C226.052 476.865 225.72 469.129 225.675 461.666C225.64 455.244 225.822 448.827 225.964 442.407C225.998 440.47 225.998 440.47 226.032 438.494C226.251 426.886 227.105 415.417 228.392 403.882C228.493 402.974 228.594 402.066 228.698 401.131C233.901 355.167 242.822 309.103 257.103 265.063C257.347 264.308 257.591 263.554 257.842 262.777C265.076 240.422 272.87 218.539 282.838 197.229C284.269 194.165 285.667 191.087 287.058 188.004C298.063 163.87 311.905 141.579 328.141 120.62C328.966 119.549 329.792 118.477 330.643 117.374C365.944 72.8439 427.442 42.9086 484.423 63.7904Z" fill="#151516" stroke="black" stroke-width="2" mask="url(#path-2-inside-1_448_9730)"/>
<path d="M94 557L139 625" stroke="#EDBD00" stroke-width="24" stroke-linecap="round"/>
<path d="M130 533L175 601" stroke="#EDBD00" stroke-width="24" stroke-linecap="round"/>
<path d="M167 503L206 562" stroke="#EDBD00" stroke-width="24" stroke-linecap="round"/>
<path d="M445.115 108.593C459.58 108.162 473.697 111.302 484.575 121.214C494.552 131.702 498.985 145.539 499.818 159.693C499.91 160.932 500.001 162.171 500.095 163.448C501.562 200.106 482.984 238.4 461.931 267.433C461.341 268.259 460.75 269.086 460.142 269.937C451.047 282.652 441.572 294.853 431.148 306.503C430.172 307.598 429.195 308.692 428.189 309.819C426.51 311.689 424.826 313.553 423.134 315.411C421.716 316.984 420.306 318.565 418.942 320.185C412.201 328.119 404.799 335.399 397.431 342.743C395.117 345.051 392.81 347.364 390.503 349.679C377.422 362.766 377.422 362.766 370.367 368.759C367.119 371.528 364.037 374.474 360.925 377.393C355.281 382.644 349.489 387.614 343.476 392.442C339.251 395.9 335.142 399.479 331.03 403.07C324.282 408.949 317.437 414.65 310.385 420.163C309.096 421.18 307.807 422.198 306.519 423.216C302.292 426.552 298.054 429.873 293.81 433.187C293.075 433.76 292.341 434.333 291.585 434.924C289.443 436.593 287.298 438.258 285.152 439.921C284.162 440.692 284.162 440.692 283.152 441.478C278.555 445.026 278.555 445.026 277.234 445.026C276.297 420.719 279.611 396.312 283.788 372.401C284.224 369.907 284.647 367.411 285.065 364.914C287.242 352.077 289.912 339.388 292.848 326.705C293.078 325.705 293.308 324.706 293.545 323.677C297.581 306.232 302.361 289.164 308.017 272.169C308.46 270.8 308.902 269.43 309.358 268.02C312.88 257.219 316.826 246.651 321.115 236.132C321.445 235.319 321.775 234.506 322.115 233.669C339.762 190.408 365.027 137.459 409.319 115.96C420.725 111.207 432.857 109.295 445.115 108.593Z" fill="#EDBD00"/>
</svg>
